<svg width="53" height="53" viewBox="0 0 53 53" fill="none" xmlns="http://www.w3.org/2000/svg">
<circle cx="26.5" cy="26.5" r="26.5" fill="#15202E"/>
<path fill-rule="evenodd" clip-rule="evenodd" d="M21.75 21.5C21.75 19.1528 23.6528 17.25 26 17.25C28.3472 17.25 30.25 19.1528 30.25 21.5C30.25 23.8472 28.3472 25.75 26 25.75C23.6528 25.75 21.75 23.8472 21.75 21.5ZM26 18.75C24.4812 18.75 23.25 19.9812 23.25 21.5C23.25 23.0188 24.4812 24.25 26 24.25C27.5188 24.25 28.75 23.0188 28.75 21.5C28.75 19.9812 27.5188 18.75 26 18.75Z" fill="white"/>
<path fill-rule="evenodd" clip-rule="evenodd" d="M22 28.75C20.7574 28.75 19.75 29.7574 19.75 31V32.1883C19.75 32.2064 19.7631 32.2218 19.781 32.2247C23.8997 32.8972 28.1003 32.8972 32.219 32.2247C32.2369 32.2218 32.25 32.2064 32.25 32.1883V31C32.25 29.7574 31.2426 28.75 30 28.75H29.6591C29.6328 28.75 29.6066 28.7542 29.5815 28.7623L28.716 29.045C26.9512 29.6212 25.0488 29.6212 23.284 29.045L22.4185 28.7623C22.3934 28.7542 22.3672 28.75 22.3409 28.75H22ZM18.25 31C18.25 28.9289 19.9289 27.25 22 27.25H22.3409C22.5254 27.25 22.7087 27.2792 22.8841 27.3364L23.7496 27.6191C25.2119 28.0965 26.7881 28.0965 28.2504 27.6191L29.1159 27.3364C29.2913 27.2792 29.4746 27.25 29.6591 27.25H30C32.0711 27.25 33.75 28.9289 33.75 31V32.1883C33.75 32.9415 33.2041 33.5837 32.4607 33.7051C28.1819 34.4037 23.8181 34.4037 19.5393 33.7051C18.7959 33.5837 18.25 32.9415 18.25 32.1883V31Z" fill="white"/>
</svg>
