<svg width="24" height="24" viewBox="0 0 24 24" fill="none" xmlns="http://www.w3.org/2000/svg">
<path fill-rule="evenodd" clip-rule="evenodd" d="M13.5578 6.12652C12.6873 5.29116 11.3127 5.29116 10.4422 6.12652L5.81574 10.5659C5.70239 10.6746 5.62614 10.8163 5.5978 10.9708C5.04367 13.9927 5.00277 17.0863 5.47681 20.1218L5.58933 20.8423H8.56579V14.6309C8.56579 14.2167 8.90158 13.8809 9.31579 13.8809H14.6842C15.0984 13.8809 15.4342 14.2167 15.4342 14.6309V20.8423H18.4107L18.5232 20.1218C18.9972 17.0863 18.9563 13.9927 18.4022 10.9708C18.3739 10.8163 18.2976 10.6746 18.1843 10.5659L13.5578 6.12652ZM9.40363 5.0442C10.8546 3.65193 13.1454 3.65193 14.5964 5.0442L19.2228 9.48353C19.5634 9.81033 19.7925 10.236 19.8776 10.7003C20.4621 13.8879 20.5053 17.1512 20.0052 20.3532L19.8245 21.5107C19.7497 21.9894 19.3374 22.3423 18.8529 22.3423H14.6842C14.27 22.3423 13.9342 22.0065 13.9342 21.5923V15.3809H10.0658V21.5923C10.0658 22.0065 9.73 22.3423 9.31579 22.3423H5.14706C4.66258 22.3423 4.25029 21.9894 4.17554 21.5107L3.99478 20.3532C3.49473 17.1512 3.53788 13.8879 4.12241 10.7003C4.20754 10.236 4.43662 9.81033 4.77719 9.48353L9.40363 5.0442Z" fill="black"/>
</svg>
