<svg width="36" height="36" viewBox="0 0 36 36" fill="none" xmlns="http://www.w3.org/2000/svg">
<path d="M23.25 21H22.0575L21.645 20.5875C23.115 18.885 24 16.6725 24 14.25C24 8.865 19.635 4.5 14.25 4.5C8.865 4.5 4.5 8.865 4.5 14.25C4.5 19.635 8.865 24 14.25 24C16.6725 24 18.885 23.115 20.5875 21.6525L21 22.065V23.25L28.5 30.735L30.735 28.5L23.25 21ZM14.25 21C10.5225 21 7.5 17.9775 7.5 14.25C7.5 10.5225 10.5225 7.5 14.25 7.5C17.9775 7.5 21 10.5225 21 14.25C21 17.9775 17.9775 21 14.25 21Z" fill="#9C9C9C"/>
</svg>
