<svg width="38" height="37" viewBox="0 0 38 37" fill="none" xmlns="http://www.w3.org/2000/svg">
<path fill-rule="evenodd" clip-rule="evenodd" d="M21.5412 16.6875H6.00204L4.67434 14.3958C4.52531 14.1385 4.24338 13.9791 3.9375 13.9791H2.25C1.78401 13.9791 1.40625 14.3429 1.40625 14.7916C1.40625 15.2404 1.78401 15.6041 2.25 15.6041H3.44205L4.75233 17.8657L7.77416 24.3042L7.77726 24.3108L8.04342 24.8779L5.00947 27.9943C4.79132 28.2183 4.72304 28.5417 4.83298 28.83C4.94293 29.1184 5.21232 29.3223 5.52922 29.3572L8.29462 29.6615C11.7536 30.0422 15.2464 30.0422 18.7054 29.6615L21.4708 29.3572C21.9338 29.3063 22.2662 28.9035 22.2133 28.4577C22.1604 28.0119 21.7422 27.6918 21.2792 27.7427L18.5138 28.0471C15.1821 28.4137 11.8179 28.4137 8.48623 28.0471L7.38877 27.9263L9.61557 25.639C9.63711 25.6169 9.65711 25.5939 9.67559 25.5702L10.5225 25.6763C11.7093 25.825 12.9089 25.8542 14.102 25.7633C16.8847 25.5514 19.4636 24.2763 21.2642 22.2223L21.9145 21.4804C21.9363 21.4555 21.9566 21.4293 21.9752 21.4021L23.1872 19.6234C24.0463 18.3626 23.1071 16.6875 21.5412 16.6875ZM9.73831 23.9393C9.55222 23.916 9.39176 23.8022 9.31341 23.6382L9.3119 23.635L6.81383 18.3125H21.5412C21.7649 18.3125 21.8991 18.5518 21.7763 18.7319L20.5922 20.4696L19.9746 21.1741C18.4649 22.8965 16.3023 23.9656 13.969 24.1434C12.8928 24.2253 11.8107 24.199 10.7402 24.0649L9.73831 23.9393Z" fill="#00FFA3"/>
<path d="M7.3125 31.0416C6.38052 31.0416 5.625 31.7692 5.625 32.6666C5.625 33.5641 6.38052 34.2916 7.3125 34.2916C8.24448 34.2916 9 33.5641 9 32.6666C9 31.7692 8.24448 31.0416 7.3125 31.0416Z" fill="#00FFA3"/>
<path d="M18 32.6666C18 31.7692 18.7555 31.0416 19.6875 31.0416C20.6195 31.0416 21.375 31.7692 21.375 32.6666C21.375 33.5641 20.6195 34.2916 19.6875 34.2916C18.7555 34.2916 18 33.5641 18 32.6666Z" fill="#00FFA3"/>
<circle cx="27" cy="11" r="11" fill="#EC6868"/>
<path d="M22.8736 14.7628V13.6761L27.6676 6.09091H28.456V7.77415H27.9233L24.3011 13.5057V13.5909H30.7571V14.7628H22.8736ZM28.0085 17V14.4325V13.9265V6.09091H29.2656V17H28.0085Z" fill="white"/>
</svg>
